<?xml version="1.0" encoding="utf-8" ?>
<svg xmlns="http://www.w3.org/2000/svg" xmlns:xlink="http://www.w3.org/1999/xlink" viewBox="240 880 2020 660" role="img" aria-label="Rendio Enterprises">
  <path d="M2127,1441 L2125,1444 L2126,1446 L2126,1513 L2127,1514 L2170,1514 L2172,1512 L2171,1508 L2133,1508 L2131,1506 L2131,1487 L2132,1486 L2163,1486 L2164,1485 L2164,1481 L2163,1480 L2134,1480 L2133,1481 L2131,1479 L2131,1448 L2133,1446 L2171,1446 L2172,1442 L2171,1441 Z" fill="black" stroke="none" />
  <path d="M2046,1441 L2045,1442 L2045,1445 L2046,1446 L2070,1446 L2071,1447 L2071,1512 L2073,1514 L2075,1514 L2077,1512 L2077,1505 L2076,1504 L2077,1503 L2077,1447 L2078,1446 L2102,1446 L2103,1443 L2102,1441 Z" fill="black" stroke="none" />
  <path d="M1960,1441 L1959,1442 L1959,1482 L1960,1483 L1961,1492 L1967,1503 L1975,1510 L1989,1514 L1995,1514 L1996,1513 L2004,1512 L2014,1506 L2019,1500 L2024,1487 L2024,1442 L2023,1441 L2019,1442 L2019,1484 L2015,1496 L2009,1503 L2002,1507 L1987,1508 L1986,1507 L1981,1507 L1979,1505 L1977,1505 L1968,1495 L1965,1485 L1965,1442 Z" fill="black" stroke="none" />
  <path d="M1893,1441 L1892,1442 L1889,1442 L1888,1443 L1886,1443 L1884,1445 L1879,1447 L1871,1455 L1871,1456 L1867,1461 L1865,1465 L1865,1469 L1864,1470 L1864,1474 L1863,1475 L1863,1478 L1864,1479 L1864,1485 L1865,1486 L1866,1491 L1871,1500 L1872,1500 L1873,1502 L1880,1508 L1881,1508 L1883,1510 L1885,1510 L1886,1511 L1888,1511 L1892,1513 L1895,1513 L1896,1514 L1901,1514 L1903,1513 L1904,1514 L1905,1513 L1912,1512 L1920,1508 L1922,1506 L1923,1506 L1923,1505 L1925,1504 L1926,1502 L1930,1498 L1930,1497 L1932,1495 L1934,1491 L1934,1488 L1936,1485 L1936,1470 L1934,1466 L1934,1463 L1932,1461 L1932,1459 L1929,1456 L1929,1455 L1921,1447 L1920,1447 L1918,1445 L1916,1445 L1914,1443 L1911,1443 L1908,1441 Z" fill="rgb(255,120,30)" stroke="none" />
  <path d="M1786,1441 L1785,1443 L1785,1512 L1787,1514 L1789,1514 L1791,1512 L1791,1487 L1792,1486 L1822,1486 L1824,1485 L1827,1489 L1827,1491 L1831,1498 L1831,1500 L1833,1502 L1833,1504 L1837,1512 L1839,1514 L1843,1513 L1843,1511 L1837,1500 L1837,1498 L1834,1493 L1834,1491 L1831,1487 L1831,1484 L1840,1476 L1843,1470 L1843,1465 L1844,1463 L1843,1462 L1843,1457 L1840,1450 L1831,1443 L1825,1442 L1824,1441 Z" fill="black" stroke="none" />
  <path d="M1625,1442 L1641,1512 L1643,1514 L1647,1513 L1670,1451 L1691,1508 L1695,1514 L1699,1513 L1708,1472 L1716,1444 L1715,1441 L1710,1443 L1696,1501 L1693,1498 L1672,1441 L1668,1441 L1645,1502 L1630,1442 Z" fill="black" stroke="none" />
  <path d="M1558,1441 L1557,1442 L1557,1450 L1558,1451 L1557,1452 L1557,1469 L1558,1470 L1557,1471 L1558,1475 L1557,1479 L1558,1483 L1557,1486 L1558,1489 L1557,1490 L1557,1502 L1558,1503 L1557,1511 L1559,1514 L1560,1513 L1562,1514 L1566,1514 L1567,1513 L1568,1514 L1601,1514 L1603,1513 L1604,1510 L1602,1508 L1564,1508 L1563,1507 L1563,1487 L1564,1486 L1595,1486 L1596,1482 L1594,1480 L1589,1481 L1588,1480 L1564,1480 L1563,1479 L1563,1448 L1565,1446 L1603,1446 L1604,1444 L1603,1441 Z" fill="black" stroke="none" />
  <path d="M1478,1441 L1477,1442 L1477,1512 L1479,1514 L1482,1513 L1482,1487 L1483,1486 L1513,1486 L1514,1485 L1516,1485 L1526,1505 L1526,1507 L1528,1509 L1528,1511 L1531,1514 L1533,1514 L1534,1513 L1534,1510 L1522,1485 L1523,1483 L1526,1482 L1532,1476 L1534,1472 L1535,1459 L1534,1458 L1534,1455 L1532,1452 L1532,1450 L1531,1450 L1526,1445 L1516,1441 Z" fill="black" stroke="none" />
  <path d="M1426,1441 L1423,1443 L1420,1443 L1418,1445 L1413,1447 L1404,1456 L1403,1459 L1401,1461 L1401,1463 L1399,1465 L1399,1470 L1398,1471 L1398,1483 L1399,1484 L1399,1488 L1403,1496 L1409,1504 L1418,1510 L1420,1510 L1423,1512 L1432,1513 L1433,1514 L1438,1514 L1439,1513 L1443,1513 L1453,1509 L1453,1505 L1452,1504 L1447,1505 L1441,1508 L1428,1508 L1427,1507 L1424,1507 L1415,1502 L1409,1496 L1408,1493 L1406,1491 L1406,1489 L1404,1486 L1404,1482 L1403,1481 L1403,1474 L1404,1473 L1404,1468 L1406,1465 L1406,1463 L1410,1457 L1417,1451 L1420,1450 L1422,1448 L1425,1448 L1428,1446 L1440,1446 L1441,1447 L1447,1448 L1449,1450 L1452,1450 L1453,1449 L1453,1446 L1452,1445 L1443,1441 Z" fill="black" stroke="none" />
  <path d="M1947,1378 L1947,1381 L1948,1382 L1950,1382 L1952,1384 L1953,1384 L1955,1386 L1956,1386 L1957,1387 L1958,1387 L1959,1388 L1960,1388 L1962,1390 L1964,1390 L1965,1391 L1966,1390 L1966,1389 L1964,1387 L1964,1386 L1962,1384 L1962,1383 L1960,1381 L1960,1380 L1958,1378 L1958,1377 L1957,1376 L1957,1375 L1956,1374 L1954,1374 L1953,1375 L1952,1375 L1950,1377 L1948,1377 Z" fill="black" stroke="none" />
  <path d="M1912,1348 L1912,1350 L1915,1353 L1915,1354 L1916,1354 L1917,1355 L1917,1356 L1918,1356 L1919,1357 L1919,1358 L1920,1358 L1921,1359 L1921,1360 L1925,1364 L1926,1364 L1927,1365 L1927,1366 L1928,1366 L1931,1369 L1932,1369 L1934,1371 L1935,1371 L1936,1370 L1936,1369 L1937,1368 L1937,1367 L1938,1366 L1938,1364 L1939,1363 L1939,1359 L1937,1359 L1936,1358 L1935,1358 L1934,1357 L1932,1357 L1931,1356 L1930,1356 L1929,1355 L1927,1355 L1925,1353 L1923,1353 L1922,1352 L1921,1352 L1920,1351 L1919,1351 L1918,1350 L1917,1350 L1916,1349 L1915,1349 L1914,1348 Z" fill="black" stroke="none" />
  <path d="M1984,1349 L1984,1353 L1995,1393 L1995,1399 L1993,1401 L1996,1403 L2017,1408 L2026,1408 L2031,1410 L2048,1410 L2049,1411 L2085,1410 L2092,1408 L2100,1408 L2105,1406 L2110,1406 L2114,1404 L2114,1400 L2108,1392 L2091,1362 L2088,1359 L2088,1357 L2084,1352 L2049,1292 L2046,1292 L2044,1295 Z" fill="black" stroke="none" />
  <path d="M1884,1207 L1881,1217 L1878,1239 L1879,1275 L1885,1302 L1890,1315 L1899,1332 L1902,1333 L1910,1324 L1940,1326 L1947,1328 L1959,1328 L2006,1259 L2006,1256 L2001,1253 L1993,1251 L1986,1247 L1920,1221 L1918,1219 L1915,1219 L1888,1207 Z" fill="black" stroke="none" />
  <path d="M1768,1101 L1767,1401 L1870,1402 L1872,1400 L1871,1101 Z" fill="black" stroke="none" />
  <path d="M1939,1129 L1907,1161 L1896,1178 L1897,1182 L2053,1197 L2103,1144 L2129,1129 L2150,1126 L2156,1135 L2153,1158 L2138,1190 L2099,1236 L2140,1396 L2176,1376 L2206,1348 L2220,1328 L2234,1296 L2239,1263 L2238,1228 L2222,1179 L2202,1151 L2184,1134 L2160,1117 L2130,1103 L2073,1092 L2031,1093 L2000,1099 L1973,1109 Z" fill="black" stroke="none" />
  <path d="M845,1101 L813,1117 L789,1136 L765,1163 L747,1196 L737,1257 L743,1295 L756,1326 L797,1374 L827,1394 L852,1404 L882,1410 L930,1410 L964,1404 L996,1392 L1024,1374 L1058,1335 L1057,1330 L985,1294 L950,1321 L925,1327 L892,1325 L858,1304 L850,1290 L846,1268 L1063,1266 L1062,1213 L1048,1170 L1020,1133 L996,1115 L966,1101 L918,1092 L878,1093 Z" fill="black" stroke="none" />
  <path d="M386,918 L384,1120 L353,1111 L309,1116 L274,1142 L256,1184 L262,1228 L290,1264 L332,1280 L384,1270 L384,1401 L496,1400 L497,1214 L642,1402 L781,1402 L618,1204 L675,1168 L710,1108 L713,1029 L704,999 L682,965 L636,933 L584,919 Z" fill="black" stroke="none" />
  <path d="M1808,916 L1790,923 L1779,931 L1770,941 L1763,953 L1759,967 L1759,988 L1763,1001 L1769,1012 L1781,1025 L1791,1032 L1799,1036 L1812,1039 L1836,1038 L1842,1036 L1858,1027 L1870,1015 L1875,1008 L1882,990 L1882,979 L1883,978 L1882,965 L1874,945 L1868,937 L1853,924 L1838,917 L1826,915 Z" fill="black" stroke="none" />
  <path d="M1742,899 L1637,898 L1636,1128 L1599,1103 L1563,1093 L1485,1101 L1427,1143 L1393,1214 L1376,1145 L1316,1101 L1237,1094 L1175,1131 L1172,1101 L1069,1101 L1067,1400 L1173,1401 L1176,1213 L1204,1182 L1242,1174 L1275,1194 L1287,1223 L1288,1402 L1392,1400 L1393,1289 L1427,1360 L1495,1405 L1571,1408 L1636,1370 L1639,1402 L1741,1402 Z" fill="black" stroke="none" />
</svg>
